HIERARCHY
ROOT joint_Root
{
	OFFSET 0.0 0.0 0.0
	CHANNELS 6 Xposition Yposition Zposition Zrotation Xrotation Yrotation 
	JOINT Hips
	{
		OFFSET -17.1583 93.1646 452.98
		CHANNELS 6 Xposition Yposition Zposition Zrotation Xrotation Yrotation 
		JOINT Spine
		{
			OFFSET 15.7357 0.0 0.0
			CHANNELS 6 Xposition Yposition Zposition Zrotation Xrotation Yrotation 
			JOINT Chest
			{
				OFFSET 8.98455 -0.406207 0.0
				CHANNELS 6 Xposition Yposition Zposition Zrotation Xrotation Yrotation 
				JOINT Neck
				{
					OFFSET 16.3773 0.0 0.0
					CHANNELS 6 Xposition Yposition Zposition Zrotation Xrotation Yrotation 
					JOINT Head
					{
						OFFSET 6.45672 0.0 0.0
						CHANNELS 6 Xposition Yposition Zposition Zrotation Xrotation Yrotation 
						End Site
						{
							OFFSET 0.0 0.0 0.0
						}
					}
				}
				JOINT Shoulder_L
				{
					OFFSET 12.9942 -0.242716 4.98039
					CHANNELS 6 Xposition Yposition Zposition Zrotation Xrotation Yrotation 
					JOINT UpperArm_L
					{
						OFFSET 5.34809 0.0 0.0
						CHANNELS 6 Xposition Yposition Zposition Zrotation Xrotation Yrotation 
						JOINT LowerArm_L
						{
							OFFSET 24.3286 1.87007e-05 0.0
							CHANNELS 6 Xposition Yposition Zposition Zrotation Xrotation Yrotation 
							JOINT Hand_L
							{
								OFFSET 22.2916 0.0 0.0
								CHANNELS 6 Xposition Yposition Zposition Zrotation Xrotation Yrotation 
								End Site
								{
									OFFSET 0.0 0.0 0.0
								}
							}
						}
					}
				}
				JOINT Shoulder_R
				{
					OFFSET 12.9945 -0.242716 -4.98039
					CHANNELS 6 Xposition Yposition Zposition Zrotation Xrotation Yrotation 
					JOINT UpperArm_R
					{
						OFFSET -5.34813 0.0 0.0
						CHANNELS 6 Xposition Yposition Zposition Zrotation Xrotation Yrotation 
						JOINT LowerArm_R
						{
							OFFSET -24.3289 0.000322201 0.0
							CHANNELS 6 Xposition Yposition Zposition Zrotation Xrotation Yrotation 
							JOINT Hand_R
							{
								OFFSET -22.2915 -0.000108084 0.0
								CHANNELS 6 Xposition Yposition Zposition Zrotation Xrotation Yrotation 
								End Site
								{
									OFFSET 0.0 0.0 0.0
								}
							}
						}
					}
				}
			}
		}
		JOINT UpperLeg_L
		{
			OFFSET -2.19248 -6.46944 0.0
			CHANNELS 6 Xposition Yposition Zposition Zrotation Xrotation Yrotation 
			JOINT LowerLeg_L
			{
				OFFSET 39.0811 0.0 -1.23785e-05
				CHANNELS 6 Xposition Yposition Zposition Zrotation Xrotation Yrotation 
				JOINT Foot_L
				{
					OFFSET 40.9854 0.0 -1.26872e-05
					CHANNELS 6 Xposition Yposition Zposition Zrotation Xrotation Yrotation 
					JOINT Toes_L
					{
						OFFSET 11.7543 0.0 0.0
						CHANNELS 6 Xposition Yposition Zposition Zrotation Xrotation Yrotation 
						End Site
						{
							OFFSET 0.0 0.0 0.0
						}
					}
				}
			}
		}
		JOINT UpperLeg_R
		{
			OFFSET -2.19251 6.46944 0.0
			CHANNELS 6 Xposition Yposition Zposition Zrotation Xrotation Yrotation 
			JOINT LowerLeg_R
			{
				OFFSET -39.0811 -0.00228153 -0.0401928
				CHANNELS 6 Xposition Yposition Zposition Zrotation Xrotation Yrotation 
				JOINT Foot_R
				{
					OFFSET -40.9854 0.0 0.0
					CHANNELS 6 Xposition Yposition Zposition Zrotation Xrotation Yrotation 
					JOINT Toes_R
					{
						OFFSET -11.7543 0.0 0.0
						CHANNELS 6 Xposition Yposition Zposition Zrotation Xrotation Yrotation 
						End Site
						{
							OFFSET 0.0 0.0 0.0
						}
					}
				}
			}
		}
	}
}
MOTION
Frames:	7
Frame Time:	0.0333333
0.000000 0.000000 0.000000 0.000000 0.000000 -0.000000 -3.218740 91.789900 -0.669420 84.109800 1.977520 5.400160 15.735700 0.000005 -0.000001 65.373900 86.592100 -63.053700 8.984550 -0.406207 -0.000000 -1.505110 -3.027110 4.600020 16.377300 -0.000001 -0.000001 10.351600 2.431600 1.427890 6.456720 -0.000001 -0.000000 3.891290 3.656070 8.019470 12.994200 -0.242716 4.980390 -92.478500 6.781770 -69.870000 5.348090 -0.000007 -0.000001 -71.184000 -20.907100 -1.646510 24.328600 0.000019 0.000005 55.000500 -42.671400 -115.388000 22.291600 -0.000001 0.000005 68.237800 4.663870 13.801700 12.994500 -0.242716 -4.980390 87.590400 6.701930 -70.171900 -5.348130 -0.000001 -0.000004 -63.068000 3.526490 -3.090770 -24.328900 0.000322 -0.000009 30.354700 -27.145700 -127.921000 -22.291500 -0.000108 -0.000004 63.310400 5.678680 -23.055900 -2.192480 -6.469440 -0.000000 -171.645000 4.206840 -3.380200 39.081100 -0.000007 -0.000012 0.396787 -0.716079 28.992300 40.985400 -0.000006 -0.000013 1.446190 10.566100 -76.905700 11.754300 -0.000000 0.000003 0.000374 0.161067 -10.044300 -2.192510 6.469440 -0.000001 -170.174000 8.279610 -175.656000 -39.081100 -0.002282 -0.040193 0.141414 -0.481188 16.012000 -40.985400 0.000008 0.000006 5.292190 -0.205778 -71.413000 -11.754300 -0.000006 -0.000006 -0.010544 0.275328 -5.386390
0.000000 0.000000 0.000000 0.000000 0.000000 -0.000000 -3.232630 91.786200 -0.693837 84.112000 1.947300 5.457050 15.735700 0.000005 -0.000001 65.594600 86.596400 -63.281200 8.984550 -0.406207 -0.000000 -1.502880 -2.999040 4.586920 16.377300 -0.000001 -0.000001 10.502600 2.468740 1.428730 6.456720 -0.000001 -0.000000 3.982220 3.584410 8.038690 12.994200 -0.242716 4.980390 -92.435000 6.648440 -69.832100 5.348090 -0.000007 -0.000001 -72.081000 -22.480200 -2.611740 24.328600 0.000019 0.000005 48.776400 -39.083300 -118.915000 22.291600 -0.000001 0.000005 66.828500 4.557830 15.636200 12.994500 -0.242716 -4.980390 87.565700 6.799920 -70.249700 -5.348130 -0.000001 -0.000004 -63.145200 3.247930 -3.493970 -24.328900 0.000322 -0.000009 30.522400 -27.272600 -127.854000 -22.291500 -0.000108 -0.000004 63.572900 5.678360 -23.165500 -2.192480 -6.469440 -0.000000 -171.653000 4.222590 -3.345870 39.081100 -0.000007 -0.000012 0.400185 -0.721431 29.018500 40.985400 -0.000006 -0.000013 1.431030 10.530000 -76.890700 11.754300 -0.000000 0.000003 0.000425 0.160143 -10.081800 -2.192510 6.469440 -0.000001 -170.164000 8.216180 -175.647000 -39.081100 -0.002282 -0.040193 0.142159 -0.481799 16.074500 -40.985400 0.000008 0.000006 5.298030 -0.238076 -71.412000 -11.754300 -0.000006 -0.000006 -0.010617 0.275857 -5.364750
0.000000 0.000000 0.000000 0.000000 0.000000 -0.000000 -3.242680 91.792100 -0.717833 84.115600 1.931390 5.497660 15.735700 0.000005 -0.000001 66.011800 86.612700 -63.712900 8.984550 -0.406207 -0.000000 -1.513930 -2.939660 4.558590 16.377300 -0.000001 -0.000001 10.619300 2.442030 1.471240 6.456720 -0.000001 -0.000000 4.093490 3.580800 8.083200 12.994200 -0.242716 4.980390 -92.408600 6.561320 -69.790500 5.348090 -0.000007 -0.000001 -73.021700 -24.376700 -3.732800 24.328600 0.000019 0.000005 39.801100 -33.142500 -123.271000 22.291600 -0.000001 0.000005 64.162900 4.385350 18.461800 12.994500 -0.242716 -4.980390 87.572900 6.800470 -70.305300 -5.348130 -0.000001 -0.000004 -63.845300 1.814890 -3.863400 -24.328900 0.000322 -0.000009 26.895900 -23.888200 -128.601000 -22.291500 -0.000108 -0.000004 63.676000 5.681630 -20.500300 -2.192480 -6.469440 -0.000000 -171.659000 4.289250 -3.305210 39.081100 -0.000007 -0.000012 0.398924 -0.719823 28.996100 40.985400 -0.000006 -0.000013 1.395710 10.465700 -76.897300 11.754300 -0.000000 0.000003 0.000264 0.163059 -9.963450 -2.192510 6.469440 -0.000001 -170.184000 8.334920 -175.591000 -39.081100 -0.002282 -0.040193 0.140865 -0.478925 16.023000 -40.985400 0.000008 0.000006 5.318400 -0.164796 -71.376200 -11.754300 -0.000006 -0.000006 -0.010705 0.276503 -5.338330
0.000000 0.000000 0.000000 0.000000 0.000000 -0.000000 -3.261350 91.785200 -0.756365 84.085300 1.971540 5.538640 15.735700 0.000005 -0.000001 66.142200 86.618800 -63.858600 8.984550 -0.406207 -0.000000 -1.519690 -2.919510 4.527860 16.377300 -0.000001 -0.000001 10.650000 2.442170 1.553010 6.456720 -0.000001 -0.000000 4.143690 3.602310 8.152220 12.994200 -0.242716 4.980390 -92.395400 6.537620 -69.825900 5.348090 -0.000007 -0.000001 -73.622300 -26.337000 -4.582380 24.328600 0.000019 0.000005 29.360900 -25.784200 -127.711000 22.291600 -0.000001 0.000005 61.007500 4.152320 22.027100 12.994500 -0.242716 -4.980390 87.606100 6.725120 -70.353800 -5.348130 -0.000001 -0.000004 -64.758000 -0.042802 -4.300280 -24.328900 0.000322 -0.000009 21.715400 -19.118700 -129.432000 -22.291500 -0.000108 -0.000004 63.477500 5.648670 -14.896700 -2.192480 -6.469440 -0.000000 -171.620000 4.312520 -3.346920 39.081100 -0.000007 -0.000012 0.401057 -0.721313 29.075500 40.985400 -0.000006 -0.000013 1.386920 10.478800 -76.885700 11.754300 -0.000000 0.000003 0.000278 0.162815 -9.973370 -2.192510 6.469440 -0.000001 -170.148000 8.333680 -175.629000 -39.081100 -0.002282 -0.040193 0.141182 -0.477834 16.092900 -40.985400 0.000008 0.000006 5.332840 -0.157827 -71.318600 -11.754300 -0.000006 -0.000006 -0.010377 0.274101 -5.436630
0.000000 0.000000 0.000000 0.000000 0.000000 -0.000000 -3.269530 91.787000 -0.788189 84.070300 1.955790 5.561610 15.735700 0.000005 -0.000001 65.890700 86.602400 -63.614600 8.984550 -0.406207 -0.000000 -1.501330 -2.959020 4.513090 16.377300 -0.000001 -0.000001 10.671500 2.454390 1.564160 6.456720 -0.000001 -0.000000 4.068470 3.664630 8.189170 12.994200 -0.242716 4.980390 -92.388800 6.540420 -69.885100 5.348090 -0.000007 -0.000001 -73.859900 -28.101300 -4.815640 24.328600 0.000019 0.000005 20.753700 -18.992600 -130.657000 22.291600 -0.000001 0.000005 59.844700 3.952110 24.901800 12.994500 -0.242716 -4.980390 87.653200 6.624820 -70.443700 -5.348130 -0.000001 -0.000004 -65.451600 -1.479850 -4.905580 -24.328900 0.000322 -0.000009 15.269700 -13.560800 -130.658000 -22.291500 -0.000108 -0.000004 63.105700 5.538070 -8.158280 -2.192480 -6.469440 -0.000000 -171.588000 4.308710 -3.354210 39.081100 -0.000007 -0.000012 0.394960 -0.710241 29.079100 40.985400 -0.000006 -0.000013 1.377880 10.498300 -76.811900 11.754300 -0.000000 0.000003 0.000497 0.158784 -10.137000 -2.192510 6.469440 -0.000001 -170.125000 8.318730 -175.628000 -39.081100 -0.002282 -0.040193 0.140603 -0.475812 16.093400 -40.985400 0.000008 0.000006 5.336420 -0.179983 -71.304700 -11.754300 -0.000006 -0.000006 -0.010530 0.275224 -5.390660
0.000000 0.000000 0.000000 0.000000 0.000000 -0.000000 -3.270180 91.788100 -0.810889 84.065800 1.935650 5.529690 15.735700 0.000005 -0.000001 65.973000 86.608400 -63.713300 8.984550 -0.406207 -0.000000 -1.508950 -2.944100 4.480270 16.377300 -0.000001 -0.000001 10.578300 2.449060 1.617770 6.456720 -0.000001 -0.000000 3.956140 3.644940 8.249690 12.994200 -0.242716 4.980390 -92.369700 6.486390 -69.881100 5.348090 -0.000007 -0.000001 -73.783000 -28.126600 -4.284370 24.328600 0.000019 0.000005 20.352000 -18.661400 -130.781000 22.291600 -0.000001 0.000005 60.645300 3.877140 25.945600 12.994500 -0.242716 -4.980390 87.666500 6.571940 -70.401700 -5.348130 -0.000001 -0.000004 -65.751500 -2.486440 -5.373360 -24.328900 0.000322 -0.000009 7.914090 -7.231420 -132.161000 -22.291500 -0.000108 -0.000004 64.113100 5.423230 -3.716680 -2.192480 -6.469440 -0.000000 -171.585000 4.297640 -3.394160 39.081100 -0.000007 -0.000012 0.396768 -0.713095 29.092700 40.985400 -0.000006 -0.000013 1.369480 10.472400 -76.859200 11.754300 -0.000000 0.000003 0.000300 0.162414 -9.989620 -2.192510 6.469440 -0.000001 -170.106000 8.246110 -175.686000 -39.081100 -0.002282 -0.040193 0.140766 -0.475782 16.112500 -40.985400 0.000008 0.000006 5.330770 -0.218451 -71.284100 -11.754300 -0.000006 -0.000006 -0.010674 0.276274 -5.347720
0.000000 0.000000 0.000000 0.000000 0.000000 -0.000000 -3.263710 91.797500 -0.821759 84.034100 1.909900 5.441550 15.735700 0.000005 -0.000001 66.076200 86.624400 -63.828100 8.984550 -0.406207 -0.000000 -1.534130 -2.919490 4.456530 16.377300 -0.000001 -0.000001 10.436300 2.388380 1.692160 6.456720 -0.000001 -0.000000 3.830220 3.639890 8.287020 12.994200 -0.242716 4.980390 -92.433100 6.691170 -69.964600 5.348090 -0.000007 -0.000001 -72.909200 -26.752500 -3.050860 24.328600 0.000019 0.000005 26.664700 -24.147500 -129.166000 22.291600 -0.000001 0.000005 62.043200 4.045870 23.575700 12.994500 -0.242716 -4.980390 87.705700 6.441870 -70.348900 -5.348130 -0.000001 -0.000004 -65.986300 -2.878730 -5.416450 -24.328900 0.000322 -0.000009 6.236290 -5.710710 -132.320000 -22.291500 -0.000108 -0.000004 65.313000 5.383510 -2.409480 -2.192480 -6.469440 -0.000000 -171.551000 4.295360 -3.479880 39.081100 -0.000007 -0.000012 0.395005 -0.710720 29.065500 40.985400 -0.000006 -0.000013 1.351800 10.423000 -76.797300 11.754300 -0.000000 0.000003 0.000363 0.161279 -10.035700 -2.192510 6.469440 -0.000001 -170.050000 8.143980 -175.739000 -39.081100 -0.002282 -0.040193 0.139565 -0.474494 16.019900 -40.985400 0.000008 0.000006 5.331560 -0.229482 -71.235600 -11.754300 -0.000006 -0.000006 -0.010636 0.275998 -5.358990
